<?xml version="1.0" encoding="UTF-8" standalone="no"?>
<svg
   xmlns:dc="http://purl.org/dc/elements/1.1/"
   xmlns:cc="http://creativecommons.org/ns#"
   xmlns:rdf="http://www.w3.org/1999/02/22-rdf-syntax-ns#"
   xmlns:svg="http://www.w3.org/2000/svg"
   xmlns="http://www.w3.org/2000/svg"
   version="1.1"
   width="512"
   viewBox="0 0 512.101 512.101"
   height="512"
   enable-background="new 0 0 512.101 512.101"
   id="Capa_1">
  <metadata
     id="metadata15">
    <rdf:RDF>
      <cc:Work
         rdf:about="">
        <dc:format>image/svg+xml</dc:format>
        <dc:type
           rdf:resource="http://purl.org/dc/dcmitype/StillImage" />
        <dc:title></dc:title>
      </cc:Work>
    </rdf:RDF>
  </metadata>
  <defs
     id="defs13" />
  <g
     transform="matrix(0.25,0,0,0.25,-3.7540512e-4,384.07538)"
     id="g8">
    <path
       id="path2"
       d="m 436.862,75.238 c -100.3,-100.301 -261.29,-100.335 -361.624,0 -100.301,100.3 -100.335,261.29 0,361.624 100.3,100.301 261.29,100.335 361.624,0 100.301,-100.299 100.335,-261.29 0,-361.624 z M 256.05,482.05 c -124.617,0 -226,-101.383 -226,-226 0,-124.617 101.383,-226 226,-226 124.617,0 226,101.383 226,226 0,124.617 -101.383,226 -226,226 z" />
    <path
       id="path4"
       d="m 329.703,173.005 c -6.197,-5.499 -15.677,-4.934 -21.176,1.263 -5.499,6.196 -4.934,15.677 1.263,21.176 17.324,15.375 27.26,37.465 27.26,60.607 0,44.664 -36.336,81 -81,81 -44.664,0 -81,-36.336 -81,-81 0,-23.371 10.101,-45.606 27.712,-61.005 6.236,-5.453 6.872,-14.929 1.418,-21.166 -5.453,-6.237 -14.929,-6.871 -21.166,-1.418 -24.127,21.096 -37.965,51.563 -37.965,83.589 0,61.206 49.794,111 111,111 61.206,0 111,-49.794 111,-111 0.001,-31.714 -13.611,-61.982 -37.346,-83.046 z" />
    <path
       id="path6"
       d="m 256.05,231.05 c 8.284,0 15,-6.716 15,-15 v -80 c 0,-8.284 -6.716,-15 -15,-15 -8.284,0 -15,6.716 -15,15 v 80 c 0,8.285 6.716,15 15,15 z" />
  </g>
</svg>
